<svg width="934" height="509" viewBox="0 0 934 509" fill="none" xmlns="http://www.w3.org/2000/svg">
<g clip-path="url(#clip0_2098_9128)">
<path d="M585.854 95.4915C610.855 110.493 634.74 124.599 658.291 139.153C661.592 141.547 664.2 144.778 665.847 148.516C667.494 152.253 668.122 156.363 667.666 160.423C667.666 204.681 667.666 248.902 667.666 293.085C667.666 315.476 667.666 338.09 667.666 360.928C667.882 365.574 666.799 370.188 664.541 374.25C662.311 378.313 658.932 381.624 654.831 383.766L484.064 485.082C480.253 487.652 475.765 489.025 471.173 489.025C466.58 489.025 462.092 487.652 458.281 485.082C400.392 450.825 342.577 416.68 284.836 382.646C280.881 380.472 277.629 377.209 275.461 373.242C273.14 369.315 271.943 364.822 272.001 360.256C272.001 292.563 272.001 224.758 272.001 156.841C271.774 152.904 272.621 148.979 274.45 145.489C276.278 141.998 279.02 139.072 282.381 137.025C305.484 123.032 329.258 109.262 353.701 94.8198C353.701 98.0664 353.701 100.529 353.701 102.88C353.701 173.074 353.701 243.267 353.701 313.461C353.292 317.635 354.136 321.838 356.124 325.528C358.113 329.218 361.156 332.228 364.862 334.172C396.672 352.532 428.258 371.339 459.621 390.147C462.708 392.275 466.366 393.414 470.112 393.414C473.858 393.414 477.516 392.275 480.604 390.147C511.632 371.451 542.772 352.867 574.135 334.843C577.842 332.931 580.89 329.943 582.88 326.269C584.871 322.595 585.713 318.405 585.296 314.244C585.296 244.722 585.296 175.201 585.296 105.791L585.854 95.4915Z" fill="#004E91"/>
<path d="M565.985 142.735C565.985 158.408 565.985 174.081 565.985 189.754C566.221 192.476 565.638 195.205 564.311 197.591C562.97 199.923 560.996 201.825 558.619 203.076C531.832 218.75 505.119 234.572 478.481 250.544C476.06 252.19 473.203 253.07 470.278 253.07C467.353 253.07 464.495 252.19 462.074 250.544C435.213 234.721 408.277 219.048 381.267 203.524C378.635 202.207 376.46 200.124 375.026 197.548C373.592 194.972 372.967 192.021 373.231 189.083C373.231 157.288 373.231 125.382 373.231 93.4762C373.011 90.9124 373.554 88.3406 374.794 86.0874C376.025 83.6165 378.022 81.613 380.486 80.3779C407.384 64.4808 434.395 48.6957 461.74 32.5747C464.205 30.8304 467.149 29.894 470.166 29.894C473.184 29.894 476.127 30.8304 478.593 32.5747C504.264 47.912 529.935 63.1374 555.829 78.0269C559.498 79.6798 562.553 82.4534 564.558 85.9516C566.562 89.4499 567.413 93.494 566.99 97.5064C566.32 112.508 566.99 127.509 566.99 142.287L565.985 142.735ZM517.546 141.951C517.709 135.505 516.591 129.091 514.258 123.083C511.925 117.075 508.423 111.592 503.956 106.956C499.489 102.319 494.146 98.62 488.24 96.0751C482.333 93.5303 475.981 92.1901 469.552 92.1328C458.288 92.3753 447.446 96.4781 438.829 103.759C430.211 111.04 424.339 121.06 422.187 132.153C420.035 143.246 421.733 154.744 427 164.734C432.267 174.725 440.784 182.606 451.136 187.067C457.024 189.604 463.368 190.899 469.776 190.874C476.134 190.875 482.429 189.603 488.291 187.132C494.154 184.662 499.465 181.042 503.914 176.485C508.363 171.929 511.861 166.527 514.202 160.597C516.542 154.667 517.679 148.328 517.546 141.951Z" fill="#7894AC"/>
</g>
<path d="M127.75 373V319.1H6.3V276.4L133 124.5H180.6V270.8H212.45V319.1H180.6V373H127.75ZM70.7 270.8H127.75V202.55L70.7 270.8Z" fill="#004E91"/>
<path d="M823.273 373V319.1H701.823V276.4L828.523 124.5H876.123V270.8H907.973V319.1H876.123V373H823.273ZM766.223 270.8H823.273V202.55L766.223 270.8Z" fill="#004E91"/>
<defs>
<clipPath id="clip0_2098_9128">
<rect width="396" height="459" fill="white" transform="translate(272 30)"/>
</clipPath>
</defs>
</svg>
