<svg width="21" height="25" viewBox="0 0 21 25" fill="none" xmlns="http://www.w3.org/2000/svg">
<path d="M16.6444 3.55387C17.9697 4.33759 19.2353 5.07052 20.4859 5.83333C20.8775 6.07332 20.9841 6.49754 20.9841 6.94367C20.9841 9.25732 20.9871 11.571 20.9931 13.8846C20.9931 15.0666 20.9931 16.2487 20.9981 17.4298C21.0115 17.673 20.9547 17.9149 20.8343 18.1268C20.714 18.3387 20.5353 18.5115 20.3195 18.6247C17.2895 20.3874 14.2611 22.1526 11.2344 23.9206C10.7771 24.1884 10.3376 24.2004 9.86527 23.9206C6.80936 22.1281 3.7488 20.3439 0.683592 18.568C0.473366 18.4561 0.298948 18.2872 0.180334 18.0808C0.0617205 17.8744 0.00371249 17.6387 0.0129549 17.4009C0.00764026 13.8557 0.00332164 10.3106 0 6.76542C0 6.32028 0.1714 5.95382 0.55206 5.72777C1.7897 4.99085 3.03632 4.27087 4.33076 3.51504C4.33873 3.68333 4.34969 3.81379 4.34969 3.93826C4.34969 7.60789 4.35667 11.2775 4.34272 14.9471C4.34272 15.452 4.50613 15.7757 4.95455 16.0306C6.64062 16.9886 8.31374 17.9705 9.98087 18.9593C10.3715 19.1914 10.7023 19.1794 11.089 18.9494C12.7352 17.9725 14.3864 17.0035 16.0515 16.0615C16.5009 15.8065 16.6633 15.4859 16.6614 14.979C16.6444 11.3472 16.6504 7.70947 16.6494 4.08166L16.6444 3.55387Z" fill="#004E91"/>
<path d="M15.5901 6.01955C15.5901 6.84011 15.5831 7.66067 15.5901 8.48024C15.6013 8.62214 15.5701 8.76417 15.5004 8.88828C15.4306 9.0124 15.3256 9.11301 15.1985 9.17732C13.7775 9.99655 12.3608 10.8231 10.9485 11.6569C10.6495 11.8312 10.3834 11.8561 10.0765 11.6788C8.65353 10.839 7.22523 10.0072 5.79161 9.18329C5.48269 9.00603 5.3671 8.77699 5.37009 8.42746C5.38404 6.76243 5.38637 5.09674 5.37707 3.43039C5.36718 3.29417 5.39726 3.15802 5.46363 3.03863C5.53001 2.91923 5.62979 2.82178 5.75076 2.75821C7.17973 1.92769 8.61069 1.10215 10.0357 0.26067C10.3536 0.0734544 10.6216 0.0854029 10.9325 0.271623C12.2897 1.07625 13.6536 1.8696 15.0241 2.65165C15.4396 2.88766 15.622 3.17845 15.6031 3.6684C15.5662 4.45012 15.5931 5.23384 15.5931 6.01756L15.5901 6.01955ZM13.0261 5.97872C13.0261 4.52182 11.9031 3.36965 10.4791 3.37363C9.09199 3.37861 7.91912 4.55667 7.91414 5.95183C7.91255 6.63642 8.18295 7.29364 8.66595 7.77911C9.14894 8.26459 9.80503 8.53861 10.4901 8.54099C11.916 8.54099 13.0231 7.42267 13.0261 5.97872Z" fill="#9D9C9C"/>
</svg>
