<svg width="24" height="25" viewBox="0 0 24 25" fill="none" xmlns="http://www.w3.org/2000/svg">
<path fill-rule="evenodd" clip-rule="evenodd" d="M3.37487 11.7609C8.7432 9.42176 12.3232 7.8801 14.1149 7.1351C19.229 5.0076 20.2915 4.63843 20.9849 4.62593C21.1365 4.6226 21.4774 4.6601 21.6982 4.83926C21.884 4.99093 21.9357 5.1951 21.9599 5.33843C21.9849 5.48176 22.0149 5.8076 21.9907 6.06343C21.714 8.9751 20.5149 16.0418 19.9049 19.3034C19.6465 20.6834 19.1382 21.1459 18.6465 21.1918C17.5765 21.2901 16.764 20.4851 15.7282 19.8059C14.1074 18.7434 13.1924 18.0818 11.619 17.0451C9.8007 15.8468 10.979 15.1884 12.0157 14.1118C12.2865 13.8301 16.999 9.54426 17.0899 9.1551C17.1015 9.10676 17.1115 8.92593 17.004 8.8301C16.8957 8.73426 16.7374 8.76676 16.6232 8.7926C16.4599 8.8301 13.8707 10.5418 8.85487 13.9276C8.11987 14.4318 7.45403 14.6776 6.85737 14.6651C6.19987 14.6509 4.93487 14.2934 3.99487 13.9876C2.84153 13.6126 1.92487 13.4143 2.00487 12.7776C2.04653 12.4459 2.5032 12.1068 3.37487 11.7609Z" fill="#1A1919"/>
</svg>
