<svg width="24" height="25" viewBox="0 0 24 25" fill="none" xmlns="http://www.w3.org/2000/svg">
<g clip-path="url(#clip0_2003_769)">
<path d="M7.48317 8.89346C7.65734 8.34096 8.13151 7.67929 8.47484 7.51012C8.62734 7.43512 8.74067 7.41846 9.11067 7.41846C9.54567 7.41846 9.56734 7.42262 9.68067 7.53512C9.75401 7.61429 9.95401 8.04012 10.2415 8.72846C10.4848 9.32012 10.6857 9.82429 10.6857 9.85096C10.6857 9.97262 10.4415 10.3593 10.1632 10.686C9.97151 10.9085 9.85901 11.0776 9.85901 11.1385C9.85901 11.1951 9.99817 11.456 10.1723 11.7135C10.594 12.3443 11.3723 13.1268 11.9782 13.5276C12.4515 13.841 13.2965 14.2501 13.4657 14.2501C13.5923 14.2501 13.8232 14.0235 14.2923 13.4318C14.484 13.1926 14.654 13.0193 14.719 13.006C14.7757 12.9885 14.9148 13.0101 15.0273 13.0535C15.354 13.1801 17.0032 13.9843 17.0907 14.0626C17.2598 14.2193 17.1215 15.116 16.8682 15.481C16.4815 16.0476 15.3765 16.5301 14.649 16.456C14.119 16.3993 12.8657 15.986 12.0515 15.5985C11.0073 15.0985 9.90651 14.1843 9.01484 13.0668C8.50567 12.431 7.99234 11.6568 7.77067 11.1951C7.47067 10.5693 7.36151 10.086 7.39151 9.52846C7.40484 9.28929 7.44817 9.00262 7.48317 8.89346Z" fill="#1A1919"/>
<path fill-rule="evenodd" clip-rule="evenodd" d="M2.50513 10.0425C3.31847 5.86838 6.6468 2.75921 10.9243 2.17588C11.5118 2.09254 13.161 2.11921 13.731 2.21421C14.3268 2.31921 15.1143 2.52338 15.5976 2.70588C18.791 3.89421 21.1501 6.63921 21.8193 9.94171C22.111 11.3825 22.046 13.0709 21.6501 14.4892C20.706 17.8475 17.9643 20.4934 14.5576 21.3375C12.3385 21.8859 10.006 21.6459 7.90513 20.6625L7.39097 20.4192L4.70263 21.2767C3.22763 21.7467 2.00847 22.1209 2.00013 22.1117C1.9918 22.1034 2.37513 20.9325 2.85763 19.5184L3.73263 16.9384L3.3793 16.2384C2.40013 14.2667 2.10013 12.1342 2.5043 10.0409L2.50513 10.0425ZM20.1485 9.70254C19.2918 6.56921 16.5676 4.18088 13.361 3.74588C11.6118 3.51088 9.96263 3.77671 8.4443 4.54254C4.76347 6.40421 3.0093 10.66 4.33597 14.5067C4.50597 14.9984 4.96263 15.925 5.24597 16.3509L5.4718 16.6909L4.96763 18.17C4.79237 18.6724 4.62402 19.1772 4.46263 19.6842C4.46263 19.7059 5.16263 19.4975 6.01597 19.2275C6.54208 19.0567 7.06988 18.8912 7.5993 18.7309C7.61763 18.7309 7.7868 18.8225 7.9743 18.9309C9.99763 20.1367 12.521 20.3975 14.7968 19.6409C16.1089 19.2044 17.2906 18.4459 18.2339 17.4349C19.1773 16.4239 19.8521 15.1925 20.1968 13.8534C20.531 12.4881 20.5144 11.0605 20.1485 9.70338V9.70254Z" fill="#1A1919"/>
</g>
<defs>
<clipPath id="clip0_2003_769">
<rect width="20" height="20" fill="white" transform="translate(2 2.12598)"/>
</clipPath>
</defs>
</svg>
