<svg width="24" height="23" viewBox="0 0 24 23" fill="none" xmlns="http://www.w3.org/2000/svg">
<path d="M22 9.62622C22.8284 9.62622 23.5 10.2978 23.5 11.1262C23.5 11.9546 22.8284 12.6262 22 12.6262L22 11.1262L22 9.62622ZM0.939341 12.1869C0.353554 11.6011 0.353554 10.6513 0.93934 10.0656L10.4853 0.51962C11.0711 -0.0661669 12.0208 -0.066167 12.6066 0.51962C13.1924 1.10541 13.1924 2.05515 12.6066 2.64094L4.12132 11.1262L12.6066 19.6115C13.1924 20.1973 13.1924 21.147 12.6066 21.7328C12.0208 22.3186 11.0711 22.3186 10.4853 21.7328L0.939341 12.1869ZM22 11.1262L22 12.6262L2 12.6262L2 11.1262L2 9.62622L22 9.62622L22 11.1262Z" fill="#B3B2B2"/>
</svg>
