<svg width="24" height="23" viewBox="0 0 24 23" fill="none" xmlns="http://www.w3.org/2000/svg">
<path d="M2 9.62622C1.17157 9.62622 0.5 10.2978 0.5 11.1262C0.5 11.9546 1.17157 12.6262 2 12.6262L2 11.1262L2 9.62622ZM23.0607 12.1869C23.6464 11.6011 23.6464 10.6513 23.0607 10.0656L13.5147 0.51962C12.9289 -0.0661669 11.9792 -0.066167 11.3934 0.51962C10.8076 1.10541 10.8076 2.05515 11.3934 2.64094L19.8787 11.1262L11.3934 19.6115C10.8076 20.1973 10.8076 21.147 11.3934 21.7328C11.9792 22.3186 12.9289 22.3186 13.5147 21.7328L23.0607 12.1869ZM2 11.1262L2 12.6262L22 12.6262L22 11.1262L22 9.62622L2 9.62622L2 11.1262Z" fill="white"/>
</svg>
