<svg width="20" height="21" viewBox="0 0 20 21" fill="none" xmlns="http://www.w3.org/2000/svg">
<path fill-rule="evenodd" clip-rule="evenodd" d="M1.37487 10.4731C6.7432 8.13392 10.3232 6.59226 12.1149 5.84726C17.229 3.71976 18.2915 3.35059 18.9849 3.33809C19.1365 3.33475 19.4774 3.37226 19.6982 3.55142C19.884 3.70309 19.9357 3.90725 19.9599 4.05059C19.9849 4.19392 20.0149 4.51976 19.9907 4.77559C19.714 7.68725 18.5149 14.7539 17.9049 18.0156C17.6465 19.3956 17.1382 19.8581 16.6465 19.9039C15.5765 20.0023 14.764 19.1973 13.7282 18.5181C12.1074 17.4556 11.1924 16.7939 9.61903 15.7573C7.8007 14.5589 8.97903 13.9006 10.0157 12.8239C10.2865 12.5423 14.999 8.25642 15.0899 7.86726C15.1015 7.81892 15.1115 7.63809 15.004 7.54226C14.8957 7.44642 14.7374 7.47892 14.6232 7.50476C14.4599 7.54226 11.8707 9.25392 6.85487 12.6398C6.11987 13.1439 5.45403 13.3898 4.85737 13.3773C4.19987 13.3631 2.93487 13.0056 1.99487 12.6998C0.841533 12.3248 -0.0751337 12.1264 0.00486635 11.4898C0.046533 11.1581 0.5032 10.8189 1.37487 10.4731Z" fill="white"/>
</svg>
