<svg width="16" height="17" viewBox="0 0 16 17" fill="none" xmlns="http://www.w3.org/2000/svg">
<path d="M10.5714 8.49998C10.5714 9.92014 9.42016 11.0714 8 11.0714C6.57984 11.0714 5.42857 9.92014 5.42857 8.49998C5.42857 7.07982 6.57984 5.92855 8 5.92855C9.42016 5.92855 10.5714 7.07982 10.5714 8.49998ZM10.5714 8.49998L10.5714 9.35714C10.5714 10.3039 11.3389 11.0714 12.2857 11.0714C12.8939 11.0714 13.4281 10.7547 13.7324 10.2772C13.9018 10.0114 14 9.69573 14 9.35714V8.5C14 5.18629 11.3137 2.5 8 2.5C4.68629 2.5 2 5.18629 2 8.5C2 11.8137 4.68629 14.5 8 14.5C9.27478 14.5 10.4567 14.1024 11.4286 13.4246" stroke="#1998F2" stroke-width="1.5" stroke-linecap="round" stroke-linejoin="round"/>
</svg>
