<svg width="36" height="36" viewBox="0 0 36 36" fill="none" xmlns="http://www.w3.org/2000/svg">
<path d="M17.8789 34.125C8.99891 34.125 1.75391 26.895 1.75391 18C1.75391 9.105 8.99891 1.875 17.8789 1.875C26.7589 1.875 34.0039 9.105 34.0039 18C34.0039 26.895 26.7739 34.125 17.8789 34.125ZM17.8789 4.125C10.2289 4.125 4.00391 10.35 4.00391 18C4.00391 25.65 10.2289 31.875 17.8789 31.875C25.5289 31.875 31.7539 25.65 31.7539 18C31.7539 10.35 25.5289 4.125 17.8789 4.125Z" fill="#004E91"/>
<path d="M23.8789 19.125H11.8789C11.2639 19.125 10.7539 18.615 10.7539 18C10.7539 17.385 11.2639 16.875 11.8789 16.875H23.8789C24.4939 16.875 25.0039 17.385 25.0039 18C25.0039 18.615 24.5089 19.125 23.8789 19.125Z" fill="#004E91"/>
</svg>
