<svg width="36" height="36" viewBox="0 0 36 36" fill="none" xmlns="http://www.w3.org/2000/svg">
<path d="M18 34.125C9.105 34.125 1.875 26.895 1.875 18C1.875 9.105 9.105 1.875 18 1.875C26.895 1.875 34.125 9.105 34.125 18C34.125 26.895 26.895 34.125 18 34.125ZM18 4.125C10.35 4.125 4.125 10.35 4.125 18C4.125 25.65 10.35 31.875 18 31.875C25.65 31.875 31.875 25.65 31.875 18C31.875 10.35 25.65 4.125 18 4.125Z" fill="#3C362D"/>
<path d="M24 19.125H12C11.385 19.125 10.875 18.615 10.875 18C10.875 17.385 11.385 16.875 12 16.875H24C24.615 16.875 25.125 17.385 25.125 18C25.125 18.615 24.615 19.125 24 19.125Z" fill="#3C362D"/>
<path d="M18 25.125C17.385 25.125 16.875 24.615 16.875 24V12C16.875 11.385 17.385 10.875 18 10.875C18.615 10.875 19.125 11.385 19.125 12V24C19.125 24.615 18.615 25.125 18 25.125Z" fill="#3C362D"/>
</svg>
