<svg width="24" height="168" viewBox="0 0 24 168" fill="none" xmlns="http://www.w3.org/2000/svg">
<path d="M23.3536 164.354C23.5488 164.158 23.5488 163.842 23.3536 163.646L20.1716 160.464C19.9763 160.269 19.6597 160.269 19.4645 160.464C19.2692 160.66 19.2692 160.976 19.4645 161.172L22.2929 164L19.4645 166.828C19.2692 167.024 19.2692 167.34 19.4645 167.536C19.6597 167.731 19.9763 167.731 20.1716 167.536L23.3536 164.354ZM23 1V0.5H13V1V1.5H23V1ZM1 13H0.5V152H1H1.5V13H1ZM13 164V164.5H23V164V163.5H13V164ZM1 152H0.5C0.5 158.904 6.09644 164.5 13 164.5V164V163.5C6.64873 163.5 1.5 158.351 1.5 152H1ZM13 1V0.5C6.09644 0.5 0.5 6.09644 0.5 13H1H1.5C1.5 6.64873 6.64873 1.5 13 1.5V1Z" fill="#D6DBE3"/>
</svg>
