<svg width="14" height="14" viewBox="0 0 14 14" fill="none" xmlns="http://www.w3.org/2000/svg">
<path d="M12.9293 11.791V9.98444C12.9366 9.68913 12.835 9.40141 12.6436 9.17603C12.104 8.54043 10.2533 8.13385 9.51974 8.28999C8.94789 8.41171 8.54781 8.98589 8.15667 9.37625C6.64612 8.51903 5.39541 7.27079 4.53648 5.76323C4.92762 5.37286 5.50294 4.97358 5.6249 4.40285C5.78111 3.67185 5.37511 1.833 4.7439 1.29123C4.52188 1.10067 4.238 0.997182 3.94519 1.00006H2.13509C1.4454 1.00071 0.871604 1.6193 0.934397 2.31279C0.929688 8.28999 5.59635 13 11.6139 12.9953C12.3112 13.0582 12.9321 12.4815 12.9293 11.791Z" stroke="#1998F2" stroke-width="1.5" stroke-linecap="round" stroke-linejoin="round"/>
</svg>
