<svg width="16" height="16" viewBox="0 0 16 16" fill="none" xmlns="http://www.w3.org/2000/svg">
<path d="M14.6454 12.2202C14.6454 12.4602 14.592 12.7068 14.4787 12.9468C14.3654 13.1868 14.2187 13.4135 14.0254 13.6268C13.6987 13.9868 13.3387 14.2468 12.932 14.4135C12.532 14.5802 12.0987 14.6668 11.632 14.6668C10.952 14.6668 10.2254 14.5068 9.4587 14.1802C8.69203 13.8535 7.92536 13.4135 7.16536 12.8602C6.3987 12.3002 5.67203 11.6802 4.9787 10.9935C4.29203 10.3002 3.67203 9.5735 3.1187 8.8135C2.57203 8.0535 2.13203 7.2935 1.81203 6.54016C1.49203 5.78016 1.33203 5.0535 1.33203 4.36016C1.33203 3.90683 1.41203 3.4735 1.57203 3.0735C1.73203 2.66683 1.98536 2.2935 2.3387 1.96016C2.76536 1.54016 3.23203 1.3335 3.72536 1.3335C3.91203 1.3335 4.0987 1.3735 4.26536 1.4535C4.4387 1.5335 4.59203 1.6535 4.71203 1.82683L6.2587 4.00683C6.3787 4.1735 6.46536 4.32683 6.52536 4.4735C6.58536 4.6135 6.6187 4.7535 6.6187 4.88016C6.6187 5.04016 6.57203 5.20016 6.4787 5.3535C6.39203 5.50683 6.26536 5.66683 6.10536 5.82683L5.5987 6.3535C5.52536 6.42683 5.49203 6.5135 5.49203 6.62016C5.49203 6.6735 5.4987 6.72016 5.51203 6.7735C5.53203 6.82683 5.55203 6.86683 5.56536 6.90683C5.68536 7.12683 5.89203 7.4135 6.18536 7.76016C6.48536 8.10683 6.80536 8.46016 7.15203 8.8135C7.51203 9.16683 7.8587 9.4935 8.21203 9.7935C8.5587 10.0868 8.84536 10.2868 9.07203 10.4068C9.10536 10.4202 9.14536 10.4402 9.19203 10.4602C9.24536 10.4802 9.2987 10.4868 9.3587 10.4868C9.47203 10.4868 9.5587 10.4468 9.63203 10.3735L10.1387 9.8735C10.3054 9.70683 10.4654 9.58016 10.6187 9.50016C10.772 9.40683 10.9254 9.36016 11.092 9.36016C11.2187 9.36016 11.352 9.38683 11.4987 9.44683C11.6454 9.50683 11.7987 9.5935 11.9654 9.70683L14.172 11.2735C14.3454 11.3935 14.4654 11.5335 14.5387 11.7002C14.6054 11.8668 14.6454 12.0335 14.6454 12.2202Z" fill="#292D32"/>
</svg>
