<svg width="14" height="12" viewBox="0 0 14 12" fill="none" xmlns="http://www.w3.org/2000/svg">
<path fill-rule="evenodd" clip-rule="evenodd" d="M0.962426 5.16599C4.72033 3.4724 7.22638 2.35621 8.48057 1.81682C12.0606 0.276476 12.8043 0.00919333 13.2897 0.000143135C13.3958 -0.00227025 13.6344 0.0248803 13.789 0.1546C13.9191 0.264409 13.9553 0.412229 13.9722 0.516004C13.9897 0.61978 14.0107 0.855688 13.9938 1.04092C13.8001 3.14901 12.9607 8.26538 12.5337 10.6269C12.3528 11.626 11.997 11.9609 11.6528 11.9941C10.9038 12.0653 10.335 11.4824 9.60993 10.9907C8.47532 10.2214 7.83481 9.74237 6.73346 8.99181C5.4606 8.1242 6.28545 7.64756 7.01113 6.86803C7.20072 6.6641 10.4995 3.56109 10.5631 3.27933C10.5713 3.24434 10.5783 3.11341 10.503 3.04402C10.4272 2.97464 10.3164 2.99817 10.2364 3.01687C10.1221 3.04402 8.30965 4.2833 4.7985 6.73469C4.28399 7.09972 3.8179 7.2777 3.40022 7.26865C2.93996 7.2584 2.05445 6.99956 1.39643 6.77813C0.589085 6.50663 -0.0525946 6.36303 0.00340651 5.90208C0.0325738 5.66194 0.352247 5.41638 0.962426 5.16599Z" fill="#1A1919"/>
</svg>
