<svg width="12" height="12" viewBox="0 0 12 12" fill="none" xmlns="http://www.w3.org/2000/svg">
<path d="M3.2895 4.06337C3.394 3.73163 3.6785 3.33435 3.8845 3.23278C3.976 3.18775 4.044 3.17774 4.266 3.17774C4.527 3.17774 4.54 3.18024 4.608 3.24779C4.652 3.29532 4.772 3.551 4.9445 3.9643C5.0905 4.31955 5.211 4.62226 5.211 4.63827C5.211 4.71132 5.0645 4.94349 4.8975 5.13962C4.7825 5.27322 4.715 5.37479 4.715 5.41132C4.715 5.44534 4.7985 5.60195 4.903 5.75656C5.156 6.13533 5.623 6.60516 5.9865 6.84583C6.2705 7.03396 6.7775 7.27963 6.879 7.27963C6.955 7.27963 7.0935 7.14354 7.375 6.78829C7.49 6.64469 7.592 6.54061 7.631 6.53261C7.665 6.5221 7.7485 6.53511 7.816 6.56113C8.012 6.63718 9.0015 7.12002 9.054 7.16705C9.1555 7.26112 9.0725 7.7995 8.9205 8.01865C8.6885 8.35889 8.0255 8.6486 7.589 8.60407C7.271 8.57004 6.519 8.32187 6.0305 8.0892C5.404 7.78899 4.7435 7.24011 4.2085 6.56913C3.903 6.18736 3.595 5.72254 3.462 5.44534C3.282 5.06958 3.2165 4.77937 3.2345 4.44463C3.2425 4.30103 3.2685 4.12891 3.2895 4.06337Z" fill="#1A1919"/>
<path fill-rule="evenodd" clip-rule="evenodd" d="M0.30308 4.75329C0.79108 2.24702 2.78808 0.380207 5.35458 0.0299604C5.70708 -0.0200748 6.69658 -0.00406355 7.03858 0.0529767C7.39608 0.116021 7.86858 0.238608 8.15858 0.348185C10.0746 1.06169 11.4901 2.70985 11.8916 4.69275C12.0666 5.55786 12.0276 6.57157 11.7901 7.42317C11.2236 9.4396 9.57858 11.0282 7.53458 11.5351C6.20308 11.8643 4.80358 11.7202 3.54308 11.1298L3.23458 10.9837L1.62158 11.4985C0.73658 11.7807 0.00508 12.0054 7.99998e-05 11.9999C-0.00492 11.9949 0.22508 11.2919 0.51458 10.4428L1.03958 8.89371L0.82758 8.47341C0.24008 7.28958 0.06008 6.00918 0.30258 4.75229L0.30308 4.75329ZM10.8891 4.54915C10.3751 2.66782 8.74058 1.23381 6.81658 0.972625C5.76708 0.831526 4.77758 0.991138 3.86658 1.45096C1.65808 2.56875 0.60558 5.12405 1.40158 7.43368C1.50358 7.72889 1.77758 8.28528 1.94758 8.54096L2.08308 8.74511L1.78058 9.63323C1.67542 9.93488 1.57441 10.238 1.47758 10.5424C1.47758 10.5554 1.89758 10.4303 2.40958 10.2682C2.72525 10.1656 3.04193 10.0662 3.35958 9.96997C3.37058 9.96997 3.47208 10.025 3.58458 10.0901C4.79858 10.8141 6.31258 10.9707 7.67808 10.5164C8.46533 10.2543 9.17436 9.79889 9.74037 9.19184C10.3064 8.58479 10.7113 7.84545 10.9181 7.04141C11.1186 6.22167 11.1086 5.36399 10.8891 4.54915Z" fill="#1A1919"/>
</svg>
