<svg width="24" height="24" viewBox="0 0 24 24" fill="none" xmlns="http://www.w3.org/2000/svg">
<path d="M5.17891 9.56988C5.17891 9.75988 5.24891 9.94988 5.39891 10.0999C5.68891 10.3899 6.16891 10.3899 6.45891 10.0999L11.9989 4.55988L17.5389 10.0999C17.8289 10.3899 18.3089 10.3899 18.5989 10.0999C18.8889 9.80988 18.8889 9.32988 18.5989 9.03988L12.5289 2.96988C12.2389 2.67988 11.7589 2.67988 11.4689 2.96988L5.39891 9.03988C5.24891 9.18988 5.17891 9.37988 5.17891 9.56988Z" fill="#1F2650"/>
<path d="M11.25 3.67V20.5C11.25 20.91 11.59 21.25 12 21.25C12.41 21.25 12.75 20.91 12.75 20.5V3.67C12.75 3.26 12.41 2.92 12 2.92C11.59 2.92 11.25 3.26 11.25 3.67Z" fill="#004E91"/>
</svg>
