<svg width="24" height="24" viewBox="0 0 24 24" fill="none" xmlns="http://www.w3.org/2000/svg">
<path d="M5.17891 14.4301C5.17891 14.2401 5.24891 14.0501 5.39891 13.9001C5.68891 13.6101 6.16891 13.6101 6.45891 13.9001L11.9989 19.4401L17.5389 13.9001C17.8289 13.6101 18.3089 13.6101 18.5989 13.9001C18.8889 14.1901 18.8889 14.6701 18.5989 14.9601L12.5289 21.0301C12.2389 21.3201 11.7589 21.3201 11.4689 21.0301L5.39891 14.9601C5.24891 14.8101 5.17891 14.6201 5.17891 14.4301Z" fill="#5B5B5B"/>
<path d="M11.25 20.33V3.5C11.25 3.09 11.59 2.75 12 2.75C12.41 2.75 12.75 3.09 12.75 3.5V20.33C12.75 20.74 12.41 21.08 12 21.08C11.59 21.08 11.25 20.74 11.25 20.33Z" fill="#5B5B5B"/>
</svg>
