<svg width="16" height="16" viewBox="0 0 16 16" fill="none" xmlns="http://www.w3.org/2000/svg">
<path d="M1.33203 2H2.9987L4.33203 11.3333H11.332M11.332 11.3333C10.5957 11.3333 9.9987 11.9303 9.9987 12.6667C9.9987 13.403 10.5957 14 11.332 14C12.0684 14 12.6654 13.403 12.6654 12.6667C12.6654 11.9303 12.0684 11.3333 11.332 11.3333ZM4.04631 9.33333H11.9987L13.9987 3.33333H3.18917M7.33203 12.6667C7.33203 13.403 6.73508 14 5.9987 14C5.26232 14 4.66536 13.403 4.66536 12.6667C4.66536 11.9303 5.26232 11.3333 5.9987 11.3333C6.73508 11.3333 7.33203 11.9303 7.33203 12.6667Z" stroke="#ECEEF2" stroke-width="1.5" stroke-linecap="round" stroke-linejoin="round"/>
</svg>
