<svg width="16" height="16" viewBox="0 0 16 16" fill="none" xmlns="http://www.w3.org/2000/svg">
<g clip-path="url(#clip0_1327_6840)">
<path d="M3.74201 14.4889C3.00699 14.489 2.30142 14.2001 1.77757 13.6845L1.71979 13.6267C1.45659 13.3699 1.24746 13.063 1.10473 12.7241C0.961988 12.3852 0.88853 12.0211 0.88868 11.6534C0.88775 11.2552 0.965839 10.8609 1.11842 10.4932C1.27101 10.1254 1.49505 9.79165 1.77757 9.51114L8.66646 2.69781C9.3664 1.96904 10.3246 1.54437 11.3346 1.51527C12.3447 1.48618 13.3257 1.85499 14.0665 2.54226C14.4005 2.8755 14.6649 3.2719 14.8443 3.70837C15.0236 4.14483 15.1142 4.61262 15.1109 5.08448C15.1069 5.61146 14.9989 6.13246 14.793 6.61755C14.587 7.10265 14.2873 7.54226 13.9109 7.91114L7.71979 14.0445C7.68131 14.0962 7.63201 14.139 7.57534 14.1698C7.51866 14.2006 7.45596 14.2187 7.39158 14.2229C7.32721 14.227 7.2627 14.2171 7.20255 14.1938C7.1424 14.1705 7.08805 14.1343 7.04326 14.0879C6.99847 14.0415 6.96432 13.9859 6.94319 13.9249C6.92206 13.864 6.91444 13.7992 6.92088 13.735C6.92732 13.6708 6.94765 13.6088 6.98046 13.5532C7.01328 13.4977 7.05779 13.45 7.1109 13.4134L13.2842 7.28003C13.5774 6.99384 13.8112 6.65257 13.9721 6.27579C14.133 5.89901 14.218 5.49416 14.222 5.08448C14.2252 4.72992 14.1577 4.37828 14.0234 4.05013C13.8891 3.72198 13.6907 3.42392 13.4398 3.17337C12.8655 2.6502 12.1088 2.37338 11.3324 2.40247C10.5561 2.43156 9.82222 2.76424 9.28868 3.32892L2.42201 10.1423C2.21966 10.3387 2.05846 10.5736 1.94782 10.833C1.83717 11.0924 1.7793 11.3713 1.77757 11.6534C1.77637 11.9011 1.82448 12.1465 1.9191 12.3754C2.01372 12.6043 2.15295 12.8121 2.32868 12.9867L2.38646 13.0445C2.78413 13.4107 3.30968 13.6061 3.84999 13.5886C4.3903 13.5712 4.90215 13.3422 5.27535 12.9511L11.2087 7.08448C11.3209 6.97103 11.4093 6.83634 11.4689 6.68829C11.5284 6.54024 11.5578 6.3818 11.5553 6.22226C11.5563 6.08368 11.5297 5.94629 11.4771 5.8181C11.4244 5.68991 11.3468 5.57348 11.2487 5.47559C11.0242 5.26977 10.7278 5.16047 10.4235 5.17128C10.1192 5.18209 9.83129 5.31214 9.62201 5.53337L5.53312 9.5867C5.44943 9.6698 5.33616 9.71625 5.21822 9.71584C5.10028 9.71542 4.98734 9.66817 4.90424 9.58448C4.82113 9.50079 4.77468 9.38751 4.7751 9.26957C4.77552 9.15163 4.82277 9.03869 4.90646 8.95559L9.01313 4.88892C9.38956 4.50329 9.9025 4.2811 10.4413 4.27029C10.9801 4.25948 11.5015 4.46092 11.8931 4.83114C12.0732 5.01448 12.2148 5.23202 12.3094 5.47094C12.4041 5.70987 12.4499 5.96533 12.4442 6.22226C12.4438 6.49893 12.3881 6.77273 12.2805 7.02762C12.1729 7.28252 12.0155 7.51338 11.8176 7.7067L5.90201 13.5911C5.32891 14.164 4.55235 14.4868 3.74201 14.4889Z" fill="#1B1A18"/>
</g>
<defs>
<clipPath id="clip0_1327_6840">
<rect width="16" height="16" fill="white"/>
</clipPath>
</defs>
</svg>
