<svg width="16" height="16" viewBox="0 0 16 16" fill="none" xmlns="http://www.w3.org/2000/svg">
<path d="M14.6663 2.66667H11.333V1.33333C11.333 0.979711 11.1925 0.640573 10.9425 0.390524C10.6924 0.140476 10.3533 0 9.99967 0L5.99967 0C5.64605 0 5.30691 0.140476 5.05687 0.390524C4.80682 0.640573 4.66634 0.979711 4.66634 1.33333V2.66667H1.33301V4H2.66634V14C2.66634 14.5304 2.87705 15.0391 3.25213 15.4142C3.6272 15.7893 4.13591 16 4.66634 16H11.333C11.8634 16 12.3721 15.7893 12.7472 15.4142C13.1223 15.0391 13.333 14.5304 13.333 14V4H14.6663V2.66667ZM5.99967 1.33333H9.99967V2.66667H5.99967V1.33333ZM11.9997 14C11.9997 14.1768 11.9294 14.3464 11.8044 14.4714C11.6794 14.5964 11.5098 14.6667 11.333 14.6667H4.66634C4.48953 14.6667 4.31996 14.5964 4.19494 14.4714C4.06991 14.3464 3.99967 14.1768 3.99967 14V4H11.9997V14Z" fill="#374957"/>
<path d="M7.33333 6.66626H6V11.9996H7.33333V6.66626Z" fill="#374957"/>
<path d="M10.0003 6.66626H8.66699V11.9996H10.0003V6.66626Z" fill="#374957"/>
</svg>
