<svg width="16" height="16" viewBox="0 0 16 16" fill="none" xmlns="http://www.w3.org/2000/svg">
<path d="M13.9996 12.791V10.9844C14.0069 10.6891 13.9053 10.4014 13.7139 10.176C13.1743 9.54043 11.3236 9.13385 10.5901 9.28999C10.0182 9.41171 9.61812 9.98589 9.22698 10.3763C7.71643 9.51903 6.46572 8.27079 5.6068 6.76323C5.99794 6.37286 6.57325 5.97358 6.69521 5.40285C6.85142 4.67185 6.44542 2.833 5.81421 2.29123C5.59219 2.10067 5.30832 1.99718 5.0155 2.00006H3.20541C2.51572 2.00071 1.94192 2.6193 2.00471 3.31279C2 9.28999 6.66667 14 12.6843 13.9953C13.3815 14.0582 14.0024 13.4815 13.9996 12.791Z" stroke="#1998F2" stroke-width="1.5" stroke-linecap="round" stroke-linejoin="round"/>
</svg>
