<svg width="29" height="29" viewBox="0 0 29 29" fill="none" xmlns="http://www.w3.org/2000/svg">
<path d="M7.07107 6.92893C7.55922 6.44078 8.35068 6.44078 8.83883 6.92893L14.1421 12.2322L19.4454 6.92893C19.9336 6.44079 20.7251 6.44078 21.2132 6.92893C21.7013 7.41708 21.7013 8.20855 21.2132 8.6967L15.9099 14L21.2132 19.3033C21.7014 19.7915 21.7014 20.5829 21.2132 21.0711C20.725 21.5592 19.9336 21.5592 19.4454 21.0711L14.1421 15.7678L8.83883 21.0711C8.35069 21.5592 7.55922 21.5592 7.07107 21.0711C6.58291 20.5829 6.58291 19.7915 7.07107 19.3033L12.3744 14L7.07107 8.6967C6.58291 8.20854 6.58291 7.41709 7.07107 6.92893Z" fill="#0B0C10"/>
</svg>
