<svg width="16" height="16" viewBox="0 0 16 16" fill="none" xmlns="http://www.w3.org/2000/svg">
<path fill-rule="evenodd" clip-rule="evenodd" d="M1.09991 6.88799C5.39467 4.62987 8.25872 3.14161 9.69209 2.42242C13.7835 0.368634 14.6335 0.0122578 15.1882 0.000190847C15.3095 -0.003027 15.5822 0.0331738 15.7589 0.206133C15.9075 0.352545 15.9489 0.549638 15.9682 0.688006C15.9882 0.826373 16.0122 1.14092 15.9929 1.38789C15.7715 4.19868 14.8122 11.0205 14.3242 14.1692C14.1175 15.5014 13.7108 15.9478 13.3175 15.9921C12.4615 16.087 11.8115 15.3099 10.9828 14.6543C9.68608 13.6286 8.95407 12.9898 7.69538 11.9891C6.24068 10.8323 7.18337 10.1967 8.01272 9.15738C8.22939 8.88547 11.9995 4.74812 12.0721 4.37244C12.0815 4.32578 12.0895 4.15121 12.0035 4.0587C11.9168 3.96619 11.7901 3.99756 11.6988 4.0225C11.5681 4.0587 9.49675 5.71106 5.484 8.97959C4.89599 9.46629 4.36331 9.70361 3.88597 9.69154C3.35996 9.67786 2.34794 9.33275 1.59592 9.03751C0.67324 8.67551 -0.0601081 8.48404 0.00389315 7.86943C0.0372272 7.54926 0.402568 7.22184 1.09991 6.88799Z" fill="#1A1919"/>
</svg>
