<svg width="16" height="16" viewBox="0 0 16 16" fill="none" xmlns="http://www.w3.org/2000/svg">
<path d="M4.07717 5.18366C4.2165 4.74134 4.59583 4.21164 4.8705 4.07621C4.9925 4.01617 5.08317 4.00282 5.37917 4.00282C5.72717 4.00282 5.7445 4.00616 5.83517 4.09622C5.89383 4.1596 6.05383 4.50051 6.28383 5.05156C6.4785 5.52523 6.63917 5.92885 6.63917 5.9502C6.63917 6.0476 6.44383 6.35715 6.22117 6.61867C6.06783 6.79679 5.97783 6.93222 5.97783 6.98092C5.97783 7.02629 6.08917 7.2351 6.2285 7.44125C6.56583 7.94627 7.1885 8.57271 7.67317 8.89361C8.05183 9.14445 8.72783 9.47201 8.86317 9.47201C8.9645 9.47201 9.14917 9.29055 9.5245 8.81688C9.67783 8.62542 9.81384 8.48665 9.86584 8.47598C9.91117 8.46197 10.0225 8.47931 10.1125 8.514C10.3738 8.61541 11.6932 9.2592 11.7632 9.32191C11.8985 9.44733 11.7878 10.1652 11.5852 10.4574C11.2758 10.911 10.3918 11.2973 9.80984 11.2379C9.38583 11.1926 8.38317 10.8617 7.73183 10.5514C6.8965 10.1512 6.01583 9.41931 5.3025 8.52468C4.89517 8.01565 4.4845 7.39588 4.30717 7.02629C4.06716 6.52527 3.97983 6.13833 4.00383 5.69201C4.0145 5.50055 4.04917 5.27105 4.07717 5.18366Z" fill="#1A1919"/>
<path fill-rule="evenodd" clip-rule="evenodd" d="M0.404107 6.33772C1.05477 2.99603 3.71744 0.506943 7.13944 0.0399473C7.60944 -0.0267665 8.92878 -0.00541806 9.38478 0.0706356C9.86144 0.154695 10.4914 0.318143 10.8781 0.464246C13.4328 1.41558 15.3201 3.61313 15.8554 6.257C16.0888 7.41048 16.0368 8.7621 15.7201 9.89757C14.9648 12.5861 12.7714 14.7043 10.0461 15.3801C8.27078 15.8191 6.40478 15.6269 4.72411 14.8397L4.31278 14.6449L2.16211 15.3314C0.982107 15.7077 0.00677334 16.0072 0.000106666 15.9999C-0.00656 15.9932 0.300107 15.0559 0.686107 13.9237L1.38611 11.8583L1.10344 11.2979C0.320107 9.71944 0.0801067 8.01224 0.40344 6.33639L0.404107 6.33772ZM14.5188 6.06553C13.8334 3.55709 11.6541 1.64508 9.08878 1.29683C7.68944 1.1087 6.37011 1.32152 5.15544 1.93462C2.21077 3.425 0.80744 6.83207 1.86877 9.91158C2.00477 10.3052 2.37011 11.047 2.59677 11.3879L2.77744 11.6601L2.37411 12.8443C2.2339 13.2465 2.09922 13.6506 1.97011 14.0565C1.97011 14.0738 2.53011 13.9071 3.21277 13.6909C3.63366 13.5542 4.05591 13.4216 4.47944 13.2933C4.49411 13.2933 4.62944 13.3667 4.77944 13.4534C6.39811 14.4188 8.41678 14.6276 10.2374 14.0218C11.2871 13.6724 12.2325 13.0652 12.9872 12.2558C13.7418 11.4464 14.2817 10.4606 14.5574 9.38854C14.8248 8.29556 14.8115 7.15198 14.5188 6.06553Z" fill="#1A1919"/>
</svg>
