<svg width="16" height="16" viewBox="0 0 16 16" fill="none" xmlns="http://www.w3.org/2000/svg">
<path d="M11.3577 0H4.65032C1.73687 0 0 1.736 0 4.648V11.344C0 14.264 1.73687 16 4.65032 16H11.3497C14.2631 16 16 14.264 16 11.352V4.648C16.008 1.736 14.2711 0 11.3577 0Z" fill="#007AFF"/>
<path d="M6.86742 10.864C6.70734 10.864 6.55527 10.8 6.44321 10.688L4.17808 8.424C3.94597 8.192 3.94597 7.808 4.17808 7.576C4.4102 7.344 4.79439 7.344 5.0265 7.576L6.86742 9.416L10.9815 5.304C11.2136 5.072 11.5978 5.072 11.8299 5.304C12.062 5.536 12.062 5.92 11.8299 6.152L7.29163 10.688C7.17958 10.8 7.0275 10.864 6.86742 10.864Z" fill="white"/>
</svg>
