<svg width="190" height="42" viewBox="0 0 190 42" fill="none" xmlns="http://www.w3.org/2000/svg">
<path d="M28.121 6.35467C30.3619 7.6936 32.4984 8.94577 34.6113 10.2507C35.2746 10.659 35.4531 11.3838 35.4531 12.1459C35.4531 16.0987 35.4581 20.0514 35.4682 24.0041C35.4682 26.0236 35.4682 28.043 35.4766 30.0608C35.4999 30.4765 35.4042 30.8901 35.2008 31.2522C34.9975 31.6143 34.6952 31.9094 34.3301 32.1024C29.212 35.1137 24.0961 38.1301 18.9825 41.1517C18.208 41.6076 17.4673 41.628 16.6676 41.1517C11.5045 38.0893 6.33369 35.0411 1.15496 32.0071C0.800359 31.8158 0.506192 31.5275 0.306117 31.1752C0.106041 30.8229 0.00811995 30.4208 0.0235727 30.0149C0.0134712 23.957 0.00561197 17.8998 0 11.8431C0 11.0826 0.289584 10.4582 0.932716 10.0703C3.02374 8.81307 5.1316 7.58302 7.31859 6.29002C7.33037 6.57754 7.34888 6.80041 7.34888 7.01308C7.34888 13.2824 7.36068 19.5518 7.33879 25.8211C7.33879 26.6837 7.61322 27.2366 8.37252 27.6722C11.2212 29.3088 14.0462 30.9863 16.8645 32.6757C17.5245 33.0721 18.0818 33.0517 18.735 32.6587C21.5163 30.9897 24.306 29.3343 27.1193 27.7249C27.8786 27.2894 28.153 26.7415 28.1497 25.8773C28.1227 19.6709 28.1311 13.4577 28.1295 7.25977L28.121 6.35467Z" fill="#135E9E"/>
<path d="M110.065 15.8701C110.065 12.6206 110.065 9.36996 110.065 6.11818C110.065 4.49343 110.907 3.65298 112.521 3.65298C116.096 3.65298 119.671 3.65298 123.246 3.65298C126.704 3.65298 129.121 6.03482 129.204 9.53783C129.226 10.4923 129.204 11.4501 129.182 12.4045C129.156 13.5161 128.795 14.5933 128.148 15.4924C128.063 15.5816 128.015 15.7009 128.015 15.825C128.015 15.9492 128.063 16.0685 128.148 16.1576C128.808 17.0745 129.173 18.1747 129.192 19.3085C129.224 20.7087 129.337 22.1208 129.096 23.5056C128.863 24.8264 128.175 26.0213 127.154 26.879C126.133 27.7367 124.844 28.202 123.517 28.1927C119.794 28.2149 116.072 28.2047 112.351 28.1927C110.939 28.1927 110.073 27.3013 110.071 25.8756C110.063 22.5421 110.06 19.207 110.065 15.8701ZM119.102 18.007C117.799 18.007 116.496 18.0189 115.193 17.9985C114.819 17.9985 114.688 18.0835 114.688 18.4901C114.71 20.1251 114.706 21.7601 114.688 23.395C114.688 23.7795 114.791 23.9054 115.183 23.9054C117.747 23.8884 120.311 23.9054 122.875 23.8935C123.874 23.8935 124.446 23.3117 124.458 22.3164C124.47 21.4045 124.468 20.4909 124.458 19.5773C124.446 18.5667 123.894 18.0172 122.884 18.0104C121.624 17.9968 120.363 18.0053 119.102 18.007ZM119.102 13.7401C120.383 13.7401 121.665 13.752 122.946 13.7401C123.917 13.7282 124.453 13.1718 124.461 12.1851C124.47 11.2936 124.471 10.4021 124.461 9.51061C124.451 8.57488 123.89 7.97942 122.98 7.97942C120.375 7.96751 117.76 7.97942 115.164 7.96751C114.828 7.96751 114.686 8.04407 114.691 8.42006C114.708 10.0329 114.711 11.6526 114.691 13.2586C114.691 13.6635 114.819 13.7588 115.196 13.752C116.493 13.7282 117.796 13.7435 119.099 13.7435L119.102 13.7401Z" fill="#135E9E"/>
<path d="M93.6514 20.2918C93.8602 19.9516 93.9696 19.7815 94.074 19.6113C97.1045 14.665 100.129 9.71817 103.149 4.77074C103.346 4.41703 103.635 4.1246 103.985 3.92516C104.335 3.72572 104.732 3.62688 105.134 3.63937C105.743 3.63937 106.359 3.69551 106.962 3.62406C107.651 3.54239 107.733 3.84012 107.731 4.44069C107.711 11.1132 107.718 17.7858 107.718 24.4567C107.718 25.4979 107.691 26.5408 107.731 27.5803C107.75 28.0788 107.575 28.1808 107.122 28.1689C105.903 28.14 104.681 28.1349 103.463 28.1689C102.98 28.1842 102.871 28.0362 102.872 27.5633C102.891 23.0599 102.884 18.5463 102.884 14.0497V13.1991C102.65 13.5546 102.512 13.752 102.379 13.9578C99.5844 18.5242 96.7936 23.0928 94.0067 27.6636C93.771 28.0481 93.5252 28.2217 93.0605 28.2081C91.8197 28.174 90.5789 28.1791 89.3381 28.2081C88.9172 28.2081 88.8094 28.0771 88.8111 27.6636C88.8223 20.4172 88.8257 13.1718 88.8212 5.92764C88.8212 4.53426 89.6933 3.66489 91.0671 3.64617C91.6985 3.64617 92.3315 3.6819 92.9595 3.63426C93.5016 3.59173 93.6632 3.73634 93.6599 4.31479C93.6329 9.24861 93.6447 14.1824 93.6447 19.1043L93.6514 20.2918Z" fill="#135E9E"/>
<path d="M149.447 23.7812C149.19 25.1423 148.929 26.4523 148.702 27.764C148.627 28.1911 148.34 28.1043 148.084 28.1043C144.445 28.1043 140.806 28.1043 137.167 28.1043C136.829 28.1001 136.491 28.0699 136.157 28.0141C134.847 27.8041 133.653 27.1332 132.786 26.12C131.918 25.1067 131.432 23.8162 131.414 22.4763C131.391 18.0529 131.391 13.6329 131.414 9.21628C131.43 6.09096 133.898 3.62576 137.078 3.57132C139.666 3.52708 142.254 3.52708 144.841 3.57132C148.003 3.62576 150.336 5.88511 150.501 9.07167C150.575 10.5093 150.707 11.9639 150.367 13.3896C150.081 14.6431 149.382 15.7611 148.384 16.5598C147.386 17.3585 146.149 17.7902 144.876 17.7841C142.206 17.796 139.534 17.8028 136.863 17.7739C136.329 17.7739 136.199 17.9236 136.214 18.4442C136.248 19.6539 136.214 20.8669 136.214 22.0782C136.214 23.1988 136.767 23.7608 137.873 23.7642C141.49 23.771 145.108 23.775 148.727 23.7761L149.447 23.7812ZM140.715 13.6176C142.061 13.6176 143.408 13.6312 144.747 13.6176C145.632 13.6057 146.213 13.0238 146.22 12.1391C146.22 11.2051 146.201 10.2677 146.159 9.33877C146.119 8.466 145.523 7.86714 144.656 7.86033C142.346 7.84332 140.035 7.84332 137.723 7.86033C136.82 7.86033 136.221 8.47961 136.208 9.39152C136.187 10.642 136.208 11.8959 136.184 13.1463C136.176 13.5478 136.302 13.6465 136.689 13.6397C138.024 13.6006 139.369 13.6142 140.715 13.6125V13.6176Z" fill="#135E9E"/>
<path d="M86.4625 15.9348C86.4625 19.824 86.4625 23.7132 86.4726 27.6024C86.4726 28.072 86.3733 28.2251 85.8867 28.2098C84.688 28.1723 83.4876 28.1706 82.2906 28.2098C81.772 28.2268 81.6171 28.089 81.6171 27.5497C81.6441 24.5741 81.6171 21.5951 81.6458 18.6229C81.6458 18.0444 81.4774 17.9219 80.9403 17.9287C78.3521 17.9571 75.7644 17.9571 73.1773 17.9287C72.5897 17.9287 72.3978 18.0393 72.4062 18.679C72.4433 21.6325 72.4062 24.5877 72.4348 27.5412C72.4348 28.0703 72.2951 28.2217 71.7614 28.2098C70.5829 28.1706 69.4044 28.1723 68.2259 28.2098C67.7073 28.2268 67.5524 28.0856 67.5524 27.5463C67.576 23.7829 67.5642 20.0213 67.5642 16.2597C67.5642 12.9217 67.5642 9.5849 67.5642 6.24919C67.5642 4.4509 68.3639 3.65298 70.1485 3.65128C70.7176 3.65128 71.2866 3.6802 71.8523 3.65128C72.2951 3.62236 72.4197 3.76697 72.418 4.21611C72.3978 7.1713 72.418 10.1265 72.3927 13.08C72.3927 13.6448 72.5308 13.7826 73.0847 13.7758C75.7145 13.744 78.3442 13.744 80.974 13.7758C81.5094 13.7758 81.6323 13.6142 81.6273 13.0953C81.6037 10.7356 81.6273 8.37753 81.6273 6.01781C81.6273 4.54957 82.4859 3.6785 83.9338 3.66319C84.5651 3.66319 85.1981 3.69551 85.8278 3.65128C86.3211 3.61725 86.4575 3.76697 86.4558 4.27566C86.4625 8.15466 86.4625 12.0422 86.4625 15.9348Z" fill="#135E9E"/>
<path d="M172.866 28.2047C170.969 28.2047 169.203 28.1928 167.438 28.2047C167.043 28.2047 166.955 27.929 166.812 27.6824C165.016 24.5882 163.225 21.4913 161.438 18.3915C161.224 18.0172 160.993 17.8505 160.552 17.8726C159.754 17.9134 158.953 17.9083 158.155 17.8726C157.71 17.8539 157.591 17.9968 157.594 18.4408C157.613 21.4606 157.594 24.4788 157.616 27.4969C157.616 28.0481 157.498 28.2302 156.926 28.2081C155.643 28.1621 154.358 28.1808 153.075 28.2081C152.682 28.2081 152.522 28.1264 152.523 27.6841C152.535 20.4365 152.523 13.1872 152.538 5.93955C152.538 4.51895 153.446 3.66829 154.863 3.65468C155.557 3.65468 156.254 3.68701 156.946 3.64277C157.465 3.60874 157.619 3.76186 157.619 4.30288C157.593 7.12877 157.63 9.95635 157.589 12.7839C157.581 13.4645 157.758 13.6601 158.414 13.6006C159.288 13.5206 160.342 13.9102 161 13.4628C161.632 13.034 161.866 12.0047 162.265 11.2357C163.335 9.16694 164.413 7.10835 165.468 5.02764C165.941 4.09192 166.659 3.63937 167.687 3.64617C168.716 3.65298 169.792 3.66999 170.842 3.64617C171.364 3.63256 171.504 3.69211 171.221 4.24163C169.329 7.90797 167.48 11.5981 165.591 15.2747C165.362 15.7204 165.394 16.0181 165.645 16.4214C167.93 20.1109 170.203 23.8085 172.462 27.5139C172.577 27.6943 172.689 27.8967 172.866 28.2047Z" fill="#135E9E"/>
<path d="M50.8764 23.9071C52.4287 23.9071 53.9069 23.9071 55.3699 23.9071C56.3801 23.9071 56.8212 23.5533 57.0535 22.5614C57.3667 21.2191 57.6512 19.8699 58.0098 18.5412C58.1664 17.9559 57.993 17.876 57.4694 17.8828C55.5551 17.91 53.6409 17.8981 51.7267 17.8828C50.3377 17.8828 49.6457 17.3384 49.2854 15.9722C48.4538 12.8157 47.6282 9.65862 46.8089 6.50098C46.4132 4.9698 47.3897 3.66489 48.942 3.60874C49.4471 3.59003 49.9522 3.60874 50.4572 3.56621C50.8596 3.52878 51.033 3.63426 51.1458 4.0647C51.9219 7.05901 52.7452 10.0414 53.5264 13.034C53.6527 13.5206 53.8194 13.7146 54.3682 13.7009C55.6696 13.6499 56.9761 13.6448 58.2775 13.7009C58.9358 13.7282 59.2052 13.5563 59.3516 12.8673C59.8803 10.38 60.4897 7.90967 61.079 5.43596C61.3753 4.1923 62.106 3.62576 63.3805 3.61385C64.2223 3.60534 65.0641 3.62406 65.9059 3.57812C66.3992 3.5526 66.4547 3.70062 66.347 4.15487C65.2476 8.79435 64.1718 13.4406 63.0842 18.0852C62.6397 19.9822 62.202 21.8826 61.7238 23.7727C61.0504 26.471 58.8617 28.1723 56.1124 28.1842C55.3548 28.1842 54.5972 28.1962 53.8396 28.1842C52.5786 28.1655 51.8933 27.6381 51.5532 26.4234C51.3142 25.6187 51.1071 24.802 50.8764 23.9071Z" fill="#135E9E"/>
<path d="M172.711 15.9552C172.711 13.8524 172.711 11.749 172.711 9.64501C172.711 6.15051 175.176 3.66489 178.634 3.65808C181.665 3.65808 184.695 3.65808 187.725 3.65808C188.853 3.65808 190.131 4.35732 189.987 5.95146C189.966 6.16242 189.987 6.37508 189.987 6.58775C189.987 7.96752 189.987 7.96752 188.619 7.96752H179.282C178.053 7.96752 177.572 8.45409 177.572 9.70966C177.572 13.8541 177.572 17.9979 177.572 22.1412C177.572 23.3576 178.085 23.8748 179.308 23.8782C182.611 23.8901 185.912 23.9037 189.214 23.8782C189.766 23.8782 189.944 23.9633 189.798 24.5707C189.547 25.5914 189.385 26.6497 189.204 27.6943C189.14 28.0566 189.01 28.2149 188.598 28.2047C185.19 28.1859 181.782 28.2166 178.375 28.1876C176.873 28.1827 175.435 27.5755 174.375 26.4995C173.316 25.4236 172.723 23.9667 172.726 22.4491C172.693 20.285 172.711 18.1176 172.711 15.9552Z" fill="#135E9E"/>
<path d="M26.3415 10.5671C26.3415 11.969 26.328 13.3709 26.3415 14.7711C26.3609 15.0136 26.3083 15.2564 26.1904 15.4685C26.0726 15.6807 25.8948 15.8525 25.6798 15.962C23.2813 17.3616 20.8878 18.7743 18.4993 20.2C18.0026 20.496 17.5464 20.5402 17.0278 20.2374C14.6226 18.8026 12.2094 17.3809 9.7884 15.9722C9.26481 15.6694 9.07119 15.2781 9.07456 14.6809C9.09813 11.8363 9.10207 8.99114 9.08636 6.14541C9.06964 5.91268 9.12046 5.68008 9.2326 5.4761C9.34474 5.27212 9.51333 5.10563 9.7177 4.99702C12.132 3.57642 14.5496 2.16603 16.9571 0.730119C17.4942 0.40857 17.9471 0.428987 18.4724 0.747133C20.7671 2.1218 23.0669 3.48455 25.3869 4.81328C26.0873 5.21649 26.397 5.71327 26.3634 6.55032C26.3011 7.88585 26.3465 9.22649 26.3465 10.5637L26.3415 10.5671ZM22.0096 10.4974C22.0096 8.00835 20.1105 6.03992 17.7047 6.04673C15.3628 6.05524 13.3812 8.0696 13.3728 10.4514C13.371 11.0305 13.4821 11.6043 13.6998 12.14C13.9175 12.6757 14.2374 13.1629 14.6414 13.5736C15.0454 13.9844 15.5254 14.3107 16.0542 14.534C16.583 14.7572 17.1501 14.8731 17.7232 14.8749C20.129 14.8749 22.0046 12.9643 22.0096 10.4974Z" fill="#7894AC"/>
<path d="M140.814 35.6785C140.814 36.3591 140.814 37.0396 140.814 37.7201C140.814 37.8902 140.763 38.1642 140.944 38.1642C141.705 38.1642 141.449 38.7154 141.476 39.1016C141.496 39.3534 141.462 39.612 141.484 39.8655C141.513 40.2057 141.407 40.3538 141.033 40.3504C140.659 40.347 140.635 40.1802 140.629 39.8825C140.607 38.9604 140.597 38.9604 139.667 38.9604C138.994 38.9604 138.32 38.991 137.647 38.9519C137.161 38.923 136.992 39.1016 137.059 39.5694C137.076 39.6936 137.049 39.8246 137.059 39.9505C137.093 40.2653 136.943 40.3521 136.654 40.3452C136.364 40.3384 136.204 40.3095 136.221 39.971C136.241 39.5882 136.233 39.2054 136.221 38.8243C136.213 38.4993 136.172 38.2016 136.654 38.1659C136.893 38.1471 136.942 37.8256 137.022 37.6146C137.48 36.3965 137.514 35.1205 137.45 33.8479C137.418 33.2252 137.6 33.0313 138.211 33.0857C138.861 33.1368 139.514 33.1368 140.164 33.0857C140.708 33.0449 140.848 33.2559 140.812 33.7663C140.782 34.4026 140.814 35.0405 140.814 35.6785ZM139.913 36.0528C139.913 35.67 139.913 35.2872 139.913 34.9061C139.89 33.7152 140.134 33.87 138.831 33.836C138.411 33.8258 138.278 33.9755 138.304 34.3872C138.33 35.1924 138.288 35.9984 138.177 36.7963C138.127 37.2642 137.635 37.8528 137.952 38.1199C138.268 38.387 138.913 38.1965 139.415 38.2101H139.479C139.804 38.2458 139.928 38.1012 139.918 37.7712C139.9 37.1978 139.913 36.6245 139.913 36.0528Z" fill="#7894AC"/>
<path d="M187.31 36.7742C187.85 35.5833 188.32 34.5472 188.789 33.5077C188.899 33.261 189.012 33.0874 189.333 33.084C189.704 33.084 189.852 33.1691 189.838 33.5774C189.818 35.2124 189.823 36.849 189.838 38.484C189.838 38.8328 189.749 38.9723 189.38 38.9689C189.012 38.9655 188.971 38.7988 188.973 38.4993C188.985 37.4479 188.973 36.3965 188.973 35.1494C188.436 35.9882 188.19 36.7504 187.832 37.453C187.719 37.6708 187.673 37.9175 187.326 37.9294C186.951 37.9413 186.882 37.6844 186.764 37.4411C186.438 36.7606 186.111 36.084 185.786 35.4114L185.618 35.4455C185.618 36.4033 185.618 37.3628 185.618 38.3207C185.618 38.6167 185.735 38.957 185.198 38.9723C184.661 38.9876 184.717 38.6541 184.719 38.3156C184.719 36.764 184.719 35.2141 184.719 33.6642C184.719 33.4617 184.584 33.1538 184.948 33.1062C185.272 33.0704 185.591 33.0228 185.776 33.4566C186.249 34.5233 186.757 35.568 187.31 36.7742Z" fill="#7894AC"/>
<path d="M76.9789 35.34C76.9789 36.3114 76.9906 37.2812 76.9789 38.2509C76.9789 38.5333 77.1876 38.957 76.5782 38.9689C75.9687 38.9808 76.1421 38.5878 76.1404 38.2884C76.1404 36.781 76.1286 35.2719 76.1404 33.7646C76.1404 33.54 75.9367 33.1793 76.3896 33.1045C76.7903 33.0364 77.0445 33.1657 77.2196 33.5723C77.659 34.5931 78.1456 35.6139 78.686 36.7793C79.2163 35.6122 79.7063 34.5778 80.1541 33.5264C80.3073 33.164 80.5279 33.0738 80.8814 33.0925C81.1474 33.1062 81.2535 33.1946 81.2535 33.4685C81.2467 35.1698 81.2467 36.8712 81.2535 38.5725C81.2535 38.8821 81.1339 38.9723 80.8427 38.9774C80.5514 38.9825 80.3881 38.8889 80.3949 38.5453C80.4134 37.6946 80.4083 36.8439 80.3949 35.9933C80.3949 35.7976 80.4858 35.5663 80.245 35.3825C79.8039 36.0154 79.5716 36.7436 79.2349 37.4241C79.117 37.6555 79.0665 37.943 78.6911 37.943C78.3156 37.943 78.255 37.6742 78.1372 37.4326C77.8004 36.7317 77.4637 36.0301 77.127 35.3281L76.9789 35.34Z" fill="#7894AC"/>
<path d="M53.9473 35.9644C54.7066 36.5904 54.9053 37.1689 54.6477 37.9294C54.412 38.6235 53.8817 38.9502 52.9523 38.9502C52.3429 38.9502 51.7334 38.9383 51.1239 38.9502C50.7872 38.9604 50.6306 38.8855 50.6357 38.4993C50.6525 36.8422 50.6525 35.1857 50.6357 33.5298C50.6357 33.1436 50.7906 33.067 51.1239 33.0772C51.7115 33.0959 52.3024 33.0772 52.8883 33.0772C53.7941 33.0874 54.2958 33.3903 54.5484 34.0691C54.8009 34.7479 54.6426 35.3247 53.9473 35.9644ZM52.3109 38.1948C52.576 38.2133 52.8421 38.2133 53.1072 38.1948C53.2865 38.1728 53.4548 38.0958 53.5894 37.9741C53.724 37.8524 53.8183 37.6919 53.8598 37.5143C53.9012 37.3602 53.8999 37.1976 53.856 37.0442C53.812 36.8909 53.7271 36.7527 53.6106 36.6449C53.4001 36.4169 51.8698 36.2485 51.6172 36.4186C51.5836 36.4407 51.5347 36.4731 51.5314 36.5054C51.4607 37.0294 51.3883 37.5857 51.5516 38.0723C51.6559 38.3836 52.1173 38.1437 52.3109 38.1948ZM52.3748 35.5748C52.6263 35.5774 52.8777 35.5638 53.1274 35.5339C53.268 35.5087 53.3997 35.4471 53.5097 35.3551C53.6198 35.2631 53.7043 35.1438 53.7552 35.009C53.8061 34.8742 53.8215 34.7283 53.8 34.5857C53.7785 34.443 53.7208 34.3084 53.6325 34.195C53.4187 33.9024 51.8916 33.671 51.5987 33.8871C51.5667 33.9126 51.5246 33.9483 51.5213 33.9823C51.4758 34.4672 51.3815 34.981 51.5583 35.425C51.6795 35.7262 52.097 35.5067 52.3748 35.5748Z" fill="#7894AC"/>
<path d="M70.6906 34.9232L68.6905 38.2169C68.5811 38.3972 68.4734 38.5793 68.3538 38.7596C68.1653 39.0642 67.8656 38.9689 67.6114 38.9298C67.3571 38.8906 67.4278 38.6354 67.4278 38.4619C67.4278 36.8269 67.4278 35.1903 67.4278 33.5553C67.4278 33.2627 67.4598 33.0806 67.8269 33.0772C68.1939 33.0738 68.2898 33.2133 68.2848 33.5621C68.2561 34.782 68.2949 36.0027 68.4009 37.2182C68.8353 36.5088 69.273 35.801 69.7057 35.0899C70.0424 34.5284 70.396 33.9738 70.7159 33.3971C70.8977 33.0653 71.1671 33.0568 71.4651 33.0993C71.8321 33.1538 71.684 33.4617 71.6856 33.6608C71.6974 35.2532 71.6856 36.8456 71.6957 38.4398C71.6957 38.7443 71.6957 38.9638 71.2765 38.9621C70.8573 38.9604 70.8371 38.7783 70.8405 38.4517C70.8523 37.2863 70.8405 36.1209 70.8405 34.9555L70.6906 34.9232Z" fill="#7894AC"/>
<path d="M105.405 34.8398L103.278 38.3479C103.189 38.4925 103.098 38.6337 103.009 38.7783C102.84 39.0625 102.559 38.9638 102.325 38.9485C102.042 38.9212 102.132 38.6627 102.13 38.4908C102.13 36.8576 102.13 35.2226 102.13 33.5893C102.13 33.2491 102.189 33.0925 102.573 33.0908C102.989 33.0908 102.99 33.3137 102.987 33.6165C102.987 34.7785 102.987 35.9405 102.987 37.1059C103.261 37.1247 103.282 36.9137 103.359 36.7844C104.032 35.6853 104.718 34.5914 105.352 33.4685C105.571 33.0823 105.857 33.0483 106.194 33.1283C106.561 33.2099 106.383 33.5536 106.386 33.7714C106.403 35.3196 106.386 36.8695 106.398 38.4194C106.398 38.7375 106.415 38.9859 105.958 38.9842C105.475 38.9842 105.544 38.6882 105.544 38.3955V34.8823L105.405 34.8398Z" fill="#7894AC"/>
<path d="M176.228 38.8685C176.555 38.2186 176.87 37.5789 177.198 36.9443C177.334 36.6806 177.42 36.5037 177.067 36.2859C176.373 35.8589 176.146 35.0337 176.403 34.2137C176.607 33.5655 177.232 33.1215 178.003 33.101C178.632 33.0857 179.262 33.1113 179.892 33.0891C180.239 33.0755 180.37 33.181 180.367 33.5519C180.35 35.2056 180.353 36.8593 180.367 38.5129C180.367 38.8311 180.286 38.9706 179.944 38.9655C179.602 38.9604 179.486 38.8719 179.505 38.5316C179.526 38.1077 179.526 37.683 179.505 37.2591C179.493 37.0396 179.648 36.6653 179.25 36.667C178.853 36.6687 178.393 36.4135 178.148 36.9681C177.959 37.3935 177.727 37.8001 177.563 38.2339C177.334 38.8379 176.981 39.1424 176.228 38.8685ZM179.508 34.8228C179.494 33.7612 179.636 33.8445 178.735 33.8411C177.541 33.8411 177.198 34.0589 177.188 34.833C177.178 35.6071 177.573 35.9014 178.693 35.8963C179.661 35.8912 179.491 35.9865 179.508 34.8228Z" fill="#7894AC"/>
<path d="M63.0606 36.0307C63.0606 36.8593 63.0438 37.6878 63.069 38.5146C63.0791 38.9025 62.9007 38.9638 62.5757 38.9689C62.2508 38.974 62.1414 38.8328 62.1498 38.5146C62.1666 37.9634 62.138 37.4105 62.1599 36.8592C62.1734 36.4952 62.0286 36.3982 61.6817 36.3829C59.8012 36.3046 59.8113 36.2961 59.7877 38.2271C59.7877 38.4772 60.0352 38.9076 59.4796 38.9604C59.1429 38.9893 58.9358 38.9417 58.9409 38.4993C58.9661 36.8439 58.9577 35.1886 58.9409 33.5332C58.9409 33.2065 59.0368 33.0857 59.3685 33.0874C59.7002 33.0891 59.813 33.1997 59.7995 33.5315C59.7793 34.0606 59.8096 34.5931 59.7894 35.1222C59.7759 35.4863 59.8635 35.6785 60.2743 35.653C60.7357 35.6258 61.1984 35.6258 61.6598 35.653C62.0605 35.6734 62.1649 35.4829 62.1548 35.1222C62.1346 34.5914 62.1632 34.0606 62.1447 33.5298C62.1329 33.1997 62.2508 33.0874 62.5808 33.0874C62.9108 33.0874 63.0741 33.1691 63.064 33.5485C63.0488 34.3736 63.0606 35.2022 63.0606 36.0307Z" fill="#7894AC"/>
<path d="M97.6921 36.0698C97.6921 36.8763 97.6786 37.6827 97.6921 38.4891C97.6921 38.8447 97.5894 38.9706 97.2274 38.9672C96.8654 38.9638 96.8233 38.7817 96.8301 38.4908C96.8419 37.96 96.8149 37.4292 96.8402 36.8984C96.857 36.5224 96.7476 36.3557 96.3486 36.388C95.8871 36.4161 95.4244 36.4161 94.963 36.388C94.5606 36.3642 94.4579 36.5445 94.473 36.9137C94.4949 37.4649 94.4629 38.0178 94.4831 38.5691C94.4983 38.9451 94.2912 38.9672 94.0067 38.9672C93.7222 38.9672 93.5723 38.9178 93.574 38.5895C93.5841 36.8882 93.5841 35.1908 93.574 33.4975C93.574 33.1232 93.7609 33.1027 94.0471 33.0925C94.3754 33.0806 94.4966 33.198 94.4848 33.5315C94.4663 34.0623 94.4949 34.5931 94.4747 35.1222C94.4613 35.4897 94.5656 35.6768 94.968 35.6564C95.4295 35.6301 95.8921 35.6301 96.3536 35.6564C96.7577 35.6819 96.8587 35.4982 96.8402 35.1307C96.8183 34.5999 96.8503 34.0691 96.8301 33.54C96.8183 33.2133 96.921 33.0891 97.256 33.0908C97.5911 33.0925 97.7005 33.1929 97.6938 33.5298C97.6803 34.3736 97.6921 35.2226 97.6921 36.0698Z" fill="#7894AC"/>
<path d="M172.157 36.0886C172.157 36.8746 172.157 37.6606 172.157 38.4466C172.157 38.7528 172.147 38.9706 171.736 38.9689C171.326 38.9672 171.299 38.7834 171.302 38.4585C171.314 37.1417 171.284 35.8249 171.319 34.508C171.332 33.9806 171.186 33.8071 170.645 33.8275C169.437 33.8803 169.612 33.6914 169.602 34.8772C169.593 35.8317 169.593 36.7895 169.364 37.7218C169.149 38.5929 168.583 39.0233 167.849 38.9536C167.664 38.9366 167.5 38.9178 167.512 38.6814C167.524 38.5112 167.411 38.2662 167.692 38.2135C168.464 38.0672 168.563 37.4462 168.664 36.8303C168.832 35.7755 168.775 34.7105 168.76 33.6506C168.76 33.2014 168.886 33.0602 169.329 33.0806C170.083 33.1147 170.844 33.1147 171.598 33.0806C172.056 33.0585 172.171 33.2286 172.154 33.6642C172.127 34.4723 172.157 35.2804 172.157 36.0886Z" fill="#7894AC"/>
<path d="M124.581 36.1141C124.581 36.895 124.572 37.6759 124.581 38.4551C124.581 38.7732 124.554 38.9655 124.151 38.9655C123.749 38.9655 123.725 38.7613 123.727 38.4551C123.734 36.8411 123.734 35.2266 123.727 33.6114C123.727 33.3086 123.727 33.084 124.143 33.0857C124.532 33.0857 124.589 33.2559 124.582 33.5961C124.566 34.292 124.582 34.9895 124.582 35.7772C125.061 35.488 125.246 35.0508 125.532 34.7105C125.832 34.3832 126.104 34.0303 126.343 33.6557C126.667 33.0976 127.111 33.0075 127.758 33.1759C127.136 33.9602 126.559 34.7309 125.936 35.4591C125.673 35.7687 125.685 35.9695 125.928 36.2757C126.611 37.1264 127.274 37.9991 127.968 38.9008C127.295 39.071 126.85 38.9451 126.476 38.3785C125.946 37.5721 125.323 36.8286 124.739 36.0579L124.581 36.1141Z" fill="#7894AC"/>
<path d="M89.8398 38.877C89.2017 39.1101 88.8381 38.9298 88.7354 38.2747C88.6764 37.9056 88.4677 37.7405 88.0788 37.7848C87.787 37.823 87.4916 37.823 87.1999 37.7848C86.5265 37.6878 86.0955 37.8698 85.9591 38.6218C85.8497 39.2156 85.3648 38.8685 84.949 38.9621L86.7033 34.0691C86.7935 33.8545 86.8728 33.6353 86.9407 33.4124C87.003 33.1521 87.1562 33.0891 87.3969 33.0908C87.6377 33.0925 87.774 33.1385 87.8649 33.3971C88.5182 35.226 89.1832 37.0515 89.8398 38.877ZM87.4339 34.377C87.1309 35.2413 86.8885 35.9371 86.646 36.633C86.5989 36.7674 86.5113 36.992 86.6797 37.0107C87.1576 37.0575 87.6385 37.0643 88.1175 37.0311C88.3195 37.0192 88.264 36.7963 88.2202 36.667C87.9895 35.9678 87.7437 35.2736 87.4339 34.377Z" fill="#7894AC"/>
<path d="M163.908 38.9519C163.482 39.054 163.371 38.746 163.31 38.4177C163.216 37.9073 162.941 37.7048 162.428 37.7865C162.199 37.8205 161.966 37.8205 161.738 37.7865C161.064 37.6929 160.606 37.8477 160.493 38.6167C160.424 39.0778 160.024 39.0097 159.744 38.9298C159.386 38.8294 159.628 38.5521 159.694 38.3683C160.266 36.7555 160.855 35.1477 161.426 33.5332C161.519 33.2763 161.594 33.0891 161.931 33.084C162.268 33.0789 162.352 33.2678 162.436 33.5213C163.029 35.1937 163.615 36.8678 164.236 38.5334C164.377 38.9076 164.261 38.9927 163.908 38.9519ZM162.037 34.6237H161.869C161.726 35.0133 161.576 35.4012 161.441 35.7942C160.98 37.1468 161.093 37.2727 162.536 37.0651C162.744 37.0345 162.845 36.992 162.763 36.7555C162.519 36.0477 162.278 35.3349 162.036 34.6237H162.037Z" fill="#7894AC"/>
<path d="M145.427 35.9695C145.427 35.1852 145.44 34.3991 145.427 33.6148C145.419 33.2559 145.484 33.0721 145.902 33.0857C146.804 33.1147 147.708 33.0993 148.611 33.0857C148.888 33.0857 149.094 33.0959 149.092 33.4787C149.092 33.8888 148.833 33.836 148.587 33.836C147.956 33.836 147.326 33.8445 146.696 33.836C146.412 33.836 146.252 33.9194 146.282 34.2307C146.284 34.2522 146.284 34.2739 146.282 34.2954C146.208 35.6394 146.208 35.6394 147.525 35.6394C147.797 35.6394 148.072 35.653 148.343 35.6394C148.614 35.6258 148.693 35.7653 148.698 36.0239C148.703 36.2825 148.599 36.3965 148.329 36.3897C147.784 36.3761 147.237 36.3897 146.691 36.3897C146.402 36.3897 146.297 36.485 146.275 36.7878C146.169 38.2152 146.161 38.2135 147.563 38.2135C147.942 38.2135 148.319 38.2135 148.698 38.2135C148.941 38.2135 149.092 38.2543 149.094 38.5538C149.095 38.8532 148.996 38.9689 148.693 38.9655C147.749 38.9519 146.804 38.9485 145.86 38.9655C145.523 38.9655 145.427 38.8396 145.432 38.5163C145.437 37.6674 145.427 36.8184 145.427 35.9695Z" fill="#7894AC"/>
<path d="M110.824 35.9882C110.824 35.1818 110.838 34.3753 110.824 33.5706C110.824 33.2201 110.92 33.0789 111.285 33.0874C112.21 33.1096 113.137 33.0993 114.058 33.0874C114.323 33.0874 114.493 33.1215 114.493 33.4583C114.493 33.7952 114.35 33.8479 114.072 33.8428C113.42 33.8292 112.769 33.8428 112.119 33.8428C111.801 33.8428 111.684 33.9449 111.666 34.2784C111.585 35.6496 111.573 35.6394 112.897 35.6394C113.149 35.6394 113.402 35.6479 113.653 35.6394C113.903 35.6309 114.094 35.6632 114.094 36.0052C114.094 36.3472 113.952 36.3965 113.673 36.3897C113.168 36.3761 112.663 36.3982 112.157 36.3897C111.821 36.3795 111.676 36.4611 111.652 36.8422C111.593 38.2169 111.578 38.2152 112.935 38.2152C113.292 38.2152 113.649 38.2237 114.006 38.2152C114.282 38.2067 114.493 38.2152 114.483 38.6048C114.472 38.9451 114.292 38.9689 114.036 38.9672C113.112 38.9672 112.184 38.9502 111.264 38.9672C110.886 38.9774 110.807 38.8124 110.814 38.4738C110.836 37.6436 110.824 36.8167 110.824 35.9882Z" fill="#7894AC"/>
<path d="M154.278 36.371C154.278 35.7551 154.247 35.1375 154.288 34.525C154.321 34.0147 154.187 33.7629 153.638 33.8445C153.454 33.8717 153.261 33.836 153.072 33.8445C152.783 33.8683 152.651 33.768 152.658 33.4532C152.658 33.1725 152.779 33.0874 153.04 33.0891C154.154 33.0982 155.266 33.0982 156.379 33.0891C156.64 33.0891 156.752 33.1674 156.759 33.4515C156.759 33.7663 156.635 33.8326 156.348 33.8462C155.126 33.9109 155.128 33.9194 155.128 35.1375C155.128 36.24 155.128 37.3492 155.128 38.4466C155.128 38.7545 155.116 38.9672 154.705 38.957C154.294 38.9468 154.262 38.7766 154.269 38.4466C154.289 37.7644 154.278 37.0634 154.278 36.371Z" fill="#7894AC"/>
</svg>
