<svg width="32" height="33" viewBox="0 0 32 33" fill="none" xmlns="http://www.w3.org/2000/svg">
<rect y="0.45459" width="32" height="32" rx="4" fill="#1E91F4"/>
<path fill-rule="evenodd" clip-rule="evenodd" d="M7.37487 16.0898C12.7432 13.7506 16.3232 12.209 18.1149 11.464C23.229 9.33645 24.2915 8.96729 24.9849 8.95479C25.1365 8.95145 25.4774 8.98895 25.6982 9.16812C25.884 9.31979 25.9357 9.52395 25.9599 9.66729C25.9849 9.81062 26.0149 10.1365 25.9907 10.3923C25.714 13.304 24.5149 20.3706 23.9049 23.6323C23.6465 25.0123 23.1382 25.4748 22.6465 25.5206C21.5765 25.619 20.764 24.814 19.7282 24.1348C18.1074 23.0723 17.1924 22.4106 15.619 21.374C13.8007 20.1756 14.979 19.5173 16.0157 18.4406C16.2865 18.159 20.999 13.8731 21.0899 13.484C21.1015 13.4356 21.1115 13.2548 21.004 13.159C20.8957 13.0631 20.7374 13.0956 20.6232 13.1215C20.4599 13.159 17.8707 14.8706 12.8549 18.2565C12.1199 18.7606 11.454 19.0065 10.8574 18.994C10.1999 18.9798 8.93487 18.6223 7.99487 18.3165C6.84153 17.9415 5.92487 17.7431 6.00487 17.1065C6.04653 16.7748 6.5032 16.4356 7.37487 16.0898Z" fill="white"/>
</svg>
